<svg width="900" height="560" viewBox="0 0 900 560" xmlns="http://www.w3.org/2000/svg" font-family="-apple-system, BlinkMacSystemFont, 'Segoe UI', sans-serif">
  <defs>
    <marker id="arr" viewBox="0 0 10 10" refX="8" refY="5" markerWidth="6" markerHeight="6" orient="auto-start-reverse">
      <path d="M2 1L8 5L2 9" fill="none" stroke="#94a3b8" stroke-width="1.5" stroke-linecap="round" stroke-linejoin="round"/>
    </marker>
    <marker id="arr-green" viewBox="0 0 10 10" refX="8" refY="5" markerWidth="6" markerHeight="6" orient="auto-start-reverse">
      <path d="M2 1L8 5L2 9" fill="none" stroke="#0F6E56" stroke-width="1.5" stroke-linecap="round" stroke-linejoin="round"/>
    </marker>
  </defs>

  <rect width="900" height="560" fill="#f8f7f3" rx="12"/>

  <text x="450" y="38" text-anchor="middle" font-size="16" font-weight="700" fill="#1a1a18">CORE Fit Wizard — Multi-Agent Architecture</text>
  <text x="450" y="58" text-anchor="middle" font-size="12" fill="#888">5-agent sequential pipeline for CORE client deployment intelligence</text>

  <!-- CLIENT INPUT -->
  <rect x="30" y="80" width="155" height="370" rx="10" fill="#fff" stroke="#e0dfd9" stroke-width="1"/>
  <text x="107" y="100" text-anchor="middle" font-size="10" font-weight="700" fill="#888" letter-spacing="0.08em">CLIENT INPUT</text>
  <rect x="48" y="112" width="120" height="70" rx="8" fill="#E1F5EE" stroke="#9FE1CB" stroke-width="1"/>
  <text x="108" y="142" text-anchor="middle" font-size="12" font-weight="600" fill="#0F6E56">Intake Form</text>
  <text x="108" y="158" text-anchor="middle" font-size="10" fill="#0F6E56">12 structured fields</text>
  <text x="48" y="205" font-size="10" fill="#666">Company + Industry</text>
  <text x="48" y="221" font-size="10" fill="#666">Cloud Provider</text>
  <text x="48" y="237" font-size="10" fill="#666">CI/CD + Source Control</text>
  <text x="48" y="253" font-size="10" fill="#666">Security Tools</text>
  <text x="48" y="269" font-size="10" fill="#666">Monitoring Tools</text>
  <text x="48" y="285" font-size="10" fill="#666">Compliance Needs</text>
  <text x="48" y="301" font-size="10" fill="#666">Pain Points</text>
  <text x="48" y="317" font-size="10" fill="#666">Primary Goal</text>

  <line x1="185" y1="265" x2="222" y2="265" stroke="#94a3b8" stroke-width="1.5" marker-end="url(#arr)"/>

  <!-- AGENT 1 -->
  <rect x="224" y="210" width="125" height="110" rx="10" fill="#E6F1FB" stroke="#378ADD" stroke-width="1.5"/>
  <text x="286" y="235" text-anchor="middle" font-size="10" font-weight="700" fill="#185FA5" letter-spacing="0.06em">AGENT 1</text>
  <text x="286" y="254" text-anchor="middle" font-size="12" font-weight="600" fill="#185FA5">Discovery</text>
  <text x="286" y="270" text-anchor="middle" font-size="12" font-weight="600" fill="#185FA5">Parser</text>
  <text x="286" y="292" text-anchor="middle" font-size="10" fill="#185FA5">Structured JSON</text>
  <text x="286" y="307" text-anchor="middle" font-size="10" fill="#185FA5">client profile</text>

  <line x1="349" y1="265" x2="386" y2="265" stroke="#94a3b8" stroke-width="1.5" marker-end="url(#arr)"/>

  <!-- AGENT 2 -->
  <rect x="388" y="210" width="125" height="110" rx="10" fill="#EEEDFE" stroke="#7F77DD" stroke-width="1.5"/>
  <text x="450" y="235" text-anchor="middle" font-size="10" font-weight="700" fill="#534AB7" letter-spacing="0.06em">AGENT 2</text>
  <text x="450" y="254" text-anchor="middle" font-size="12" font-weight="600" fill="#534AB7">Stack</text>
  <text x="450" y="270" text-anchor="middle" font-size="12" font-weight="600" fill="#534AB7">Compatibility</text>
  <text x="450" y="292" text-anchor="middle" font-size="10" fill="#534AB7">Native / Custom /</text>
  <text x="450" y="307" text-anchor="middle" font-size="10" fill="#534AB7">Blocker matrix</text>

  <!-- Agent 2 splits to Agent 3 (up) and Agent 4 (down) -->
  <path d="M513 245 L540 245 L540 175 L556 175" fill="none" stroke="#94a3b8" stroke-width="1.5" marker-end="url(#arr)"/>
  <path d="M513 285 L540 285 L540 355 L556 355" fill="none" stroke="#94a3b8" stroke-width="1.5" marker-end="url(#arr)"/>

  <!-- AGENT 3 -->
  <rect x="558" y="130" width="125" height="110" rx="10" fill="#E1F5EE" stroke="#1D9E75" stroke-width="1.5"/>
  <text x="620" y="155" text-anchor="middle" font-size="10" font-weight="700" fill="#0F6E56" letter-spacing="0.06em">AGENT 3</text>
  <text x="620" y="174" text-anchor="middle" font-size="12" font-weight="600" fill="#0F6E56">Use Case</text>
  <text x="620" y="190" text-anchor="middle" font-size="12" font-weight="600" fill="#0F6E56">Matcher</text>
  <text x="620" y="212" text-anchor="middle" font-size="10" fill="#0F6E56">Ranked agent</text>
  <text x="620" y="227" text-anchor="middle" font-size="10" fill="#0F6E56">recommendations</text>

  <!-- AGENT 4 -->
  <rect x="558" y="300" width="125" height="110" rx="10" fill="#FAECE7" stroke="#D85A30" stroke-width="1.5"/>
  <text x="620" y="325" text-anchor="middle" font-size="10" font-weight="700" fill="#993C1D" letter-spacing="0.06em">AGENT 4</text>
  <text x="620" y="344" text-anchor="middle" font-size="12" font-weight="600" fill="#993C1D">Risk</text>
  <text x="620" y="360" text-anchor="middle" font-size="12" font-weight="600" fill="#993C1D">Flagger</text>
  <text x="620" y="382" text-anchor="middle" font-size="10" fill="#993C1D">Risk registry +</text>
  <text x="620" y="397" text-anchor="middle" font-size="10" fill="#993C1D">severity scores</text>

  <!-- Agent 3 and 4 converge into Agent 5 -->
  <path d="M683 185 L720 185 L720 255 L736 255" fill="none" stroke="#94a3b8" stroke-width="1.5" marker-end="url(#arr)"/>
  <path d="M683 355 L720 355 L720 295 L736 295" fill="none" stroke="#94a3b8" stroke-width="1.5" marker-end="url(#arr)"/>

  <!-- AGENT 5 -->
  <rect x="738" y="215" width="125" height="115" rx="10" fill="#FAEEDA" stroke="#EF9F27" stroke-width="1.5"/>
  <text x="800" y="240" text-anchor="middle" font-size="10" font-weight="700" fill="#854F0B" letter-spacing="0.06em">AGENT 5</text>
  <text x="800" y="259" text-anchor="middle" font-size="12" font-weight="600" fill="#854F0B">Roadmap</text>
  <text x="800" y="275" text-anchor="middle" font-size="12" font-weight="600" fill="#854F0B">Orchestrator</text>
  <text x="800" y="297" text-anchor="middle" font-size="10" fill="#854F0B">30/60/90-day plan</text>
  <text x="800" y="312" text-anchor="middle" font-size="10" fill="#854F0B">+ exec summary</text>

  <!-- KNOWLEDGE BASE -->
  <rect x="224" y="430" width="420" height="100" rx="10" fill="#fff" stroke="#e0dfd9" stroke-width="1" stroke-dasharray="5,3"/>
  <text x="434" y="452" text-anchor="middle" font-size="10" font-weight="700" fill="#888" letter-spacing="0.08em">CORE KNOWLEDGE BASE (core_knowledge.json)</text>
  <text x="244" y="472" font-size="10" fill="#666">Integration catalog  |  Agent catalog (10 agents + ROI/effort)</text>
  <text x="244" y="490" font-size="10" fill="#666">Compliance map (HIPAA, SOC2, GDPR, PCI-DSS, FedRAMP)</text>
  <text x="244" y="508" font-size="10" fill="#666">Team size guidance (small / medium / large buckets)</text>

  <!-- KB arrows from Agent 2 and Agent 3/4 -->
  <line x1="450" y1="320" x2="450" y2="428" stroke="#ccc" stroke-width="1" stroke-dasharray="4,3" marker-end="url(#arr)"/>
  <line x1="620" y1="410" x2="560" y2="428" stroke="#ccc" stroke-width="1" stroke-dasharray="4,3" marker-end="url(#arr)"/>

  <!-- OUTPUT -->
  <rect x="660" y="430" width="210" height="100" rx="10" fill="#fff" stroke="#9FE1CB" stroke-width="1.5"/>
  <text x="765" y="452" text-anchor="middle" font-size="10" font-weight="700" fill="#0F6E56" letter-spacing="0.08em">REPORT OUTPUT</text>
  <text x="675" y="472" font-size="10" fill="#0F6E56">Compatibility score + matrix</text>
  <text x="675" y="488" font-size="10" fill="#0F6E56">Ranked agent recommendations</text>
  <text x="675" y="504" font-size="10" fill="#0F6E56">Risk registry (High/Med/Low)</text>
  <text x="675" y="520" font-size="10" fill="#0F6E56">30/60/90-day deployment roadmap</text>
  <line x1="800" y1="330" x2="800" y2="428" stroke="#0F6E56" stroke-width="1.5" marker-end="url(#arr-green)"/>

  <!-- Footer -->
  <text x="450" y="548" text-anchor="middle" font-size="11" fill="#aaa">Python 3.12 · FastAPI · LangChain LCEL · Groq LLaMA 3.3 · ChromaDB RAG · React + TypeScript · Azure</text>
</svg>
